<!DOCTYPE svg PUBLIC "-//W3C//DTD SVG 1.1//EN" "http://www.w3.org/Graphics/SVG/1.1/DTD/svg11.dtd">
<!-- Uploaded to: SVG Repo, www.svgrepo.com, Transformed by: SVG Repo Mixer Tools -->
<svg height="800px" width="800px" version="1.1" id="Capa_1" xmlns="http://www.w3.org/2000/svg" xmlns:xlink="http://www.w3.org/1999/xlink" viewBox="0 0 293.367 293.367" xml:space="preserve" fill="#ffffff" stroke="#ffffff">
<g id="SVGRepo_bgCarrier" stroke-width="0"/>
<g id="SVGRepo_tracerCarrier" stroke-linecap="round" stroke-linejoin="round"/>
<g id="SVGRepo_iconCarrier"> <g> <path style="fill:#ffffff;" d="M293.367,146.692C293.367,65.802,227.565,0,146.681,0C65.802,0,0,65.802,0,146.692 c0,80.868,65.802,146.675,146.681,146.675C227.565,293.361,293.367,227.56,293.367,146.692z M21.468,146.692 c0-65.465,50.507-119.262,114.579-124.691v119.632l-7.267-7.267c-4.531-4.531-11.879-4.531-16.41,0 c-2.268,2.268-3.399,5.238-3.399,8.208c0,2.964,1.131,5.939,3.399,8.202l27.065,27.07c0.005,0,0.011,0.016,0.011,0.016l8.197,8.197 l8.197-8.197c0,0,0.005-0.016,0.011-0.016l29.001-29.001c4.531-4.531,4.531-11.879,0-16.41c-4.531-4.531-11.879-4.531-16.41,0 l-9.197,9.197V22.104c63.158,6.315,112.648,59.764,112.648,124.582c0,69.038-56.18,125.213-125.224,125.213 C77.643,271.904,21.468,215.73,21.468,146.692z"/> </g> </g>
</svg>